<svg xmlns="http://www.w3.org/2000/svg" version="1.1" xmlns:xlink="http://www.w3.org/1999/xlink" width="1000" height="1000"><metadata><rdf:RDF xmlns:rdf="http://www.w3.org/1999/02/22-rdf-syntax-ns#" xmlns:dc="http://purl.org/dc/elements/1.1/"><rdf:Description><dc:creator>RealFaviconGenerator</dc:creator><dc:source>https://realfavicongenerator.net</dc:source></rdf:Description></rdf:RDF></metadata><g clip-path="url(#SvgjsClipPath1188)"><rect width="1000" height="1000" fill="#ffffff"></rect><g transform="matrix(1.3274336283185841,0,0,1.3274336283185841,50,225.88495575221236)"><svg xmlns="http://www.w3.org/2000/svg" width="678" height="413" viewBox="0 0 678 413" fill="none"><path d="M584.674 67.9551C478.985 45.6866 191.412 46.051 92.2657 67.9112C83.6686 69.8067 76.7044 75.9365 72.8361 83.8447C-49.5328 334.015 12.9781 399.867 92.7862 408.346C104.805 409.622 115.904 402.534 121.342 391.74L166.575 301.942C173.006 289.175 187.211 282.247 201.254 284.915C328.659 309.119 342.924 308.984 483.324 284.511C497.295 282.076 511.322 289.089 517.625 301.793L562.174 391.568C567.578 402.457 578.736 409.651 590.812 408.265C667.086 399.516 723.876 333.984 604.837 84.4183C600.903 76.1716 593.614 69.8388 584.674 67.9551Z" fill="#5C30FF"></path><path d="M133.82 18.4194L215.5 4M458.891 4L538.714 18.4194M121.342 391.74L166.575 301.942C173.006 289.175 187.211 282.247 201.254 284.915C328.659 309.119 342.924 308.984 483.324 284.511C497.295 282.076 511.322 289.089 517.625 301.793L562.174 391.568C567.578 402.457 578.736 409.651 590.812 408.265C667.086 399.516 723.876 333.984 604.837 84.4183C600.903 76.1716 593.614 69.8388 584.674 67.9551C478.985 45.6866 191.412 46.051 92.2657 67.9112C83.6686 69.8067 76.7044 75.9365 72.8361 83.8447C-49.5328 334.015 12.9781 399.867 92.7862 408.346C104.805 409.622 115.904 402.534 121.342 391.74Z" stroke="#B8CE52" stroke-width="8" stroke-linecap="round"></path><path d="M607.378 45.4658C617.362 44.5088 626 52.3581 626 62.3877V262.24C626 270.875 619.528 278.137 610.95 279.128L342.752 310.098C341.233 310.479 339.638 310.654 338 310.593C336.362 310.654 334.766 310.479 333.247 310.098L65.0498 279.128C56.4725 278.137 50 270.875 50 262.24V62.3877C50.0002 52.3581 58.6382 44.5088 68.6221 45.4658L338 71.2881L607.378 45.4658Z" fill="#E63C25"></path><path d="M597.139 35.6438C607.144 34.6481 615.822 42.5056 615.822 52.5598V252.411C615.822 261.018 609.391 268.266 600.846 269.29L340.472 300.504C340.07 300.552 339.67 300.583 339.272 300.603C339.216 300.606 339.159 300.609 339.103 300.612C339.018 300.615 338.934 300.617 338.851 300.619C338.788 300.621 338.725 300.623 338.662 300.624C338.578 300.625 338.495 300.625 338.411 300.625C338.327 300.625 338.243 300.625 338.159 300.624C338.096 300.623 338.033 300.621 337.971 300.619C337.887 300.617 337.803 300.615 337.719 300.612C337.662 300.609 337.605 300.606 337.549 300.603C337.152 300.583 336.752 300.552 336.351 300.504L75.9766 269.29C67.4316 268.266 61 261.018 61 252.411V52.5598C61.0001 42.5056 69.6787 34.6481 79.6836 35.6438L338.411 61.3928L597.139 35.6438Z" fill="#F6BC3F"></path><path d="M588.084 26.091C598.108 25.06 606.823 32.9246 606.823 43.0011V242.851C606.823 251.431 600.428 258.667 591.913 259.722L341.089 290.798C340.185 290.91 339.291 290.947 338.411 290.918C337.532 290.947 336.638 290.91 335.734 290.798L84.9102 259.721C76.3949 258.666 70.0002 251.431 70 242.851V43.0011C70.0002 32.9246 78.7156 25.0601 88.7393 26.091L338.411 51.7716L588.084 26.091Z" fill="#B8CE52"></path><path d="M560.01 213C558.793 213 558.185 212.392 558.185 211.175V182.705L538.621 163.214C538.28 162.825 538.061 162.484 537.964 162.192C537.915 161.852 537.891 161.462 537.891 161.024V117.516C537.891 116.3 538.499 115.691 539.716 115.691H560.375C561.591 115.691 562.2 116.3 562.2 117.516V161.681H578.552V117.516C578.552 116.3 579.16 115.691 580.377 115.691H601.036C602.252 115.691 602.861 116.3 602.861 117.516V161.024C602.861 161.462 602.836 161.852 602.788 162.192C602.739 162.484 602.52 162.825 602.131 163.214L582.64 182.705V211.175C582.64 212.392 582.031 213 580.815 213H560.01Z" fill="white"></path><path d="M404.905 213C403.688 213 403.08 212.392 403.08 211.175V117.516C403.08 116.3 403.688 115.691 404.905 115.691H425.564C426.781 115.691 427.389 116.3 427.389 117.516V193.509H445.785C447.002 193.509 447.61 194.118 447.61 195.334V211.175C447.61 212.392 447.002 213 445.785 213H404.905Z" fill="white"></path><path d="M249.322 213C248.154 213 247.18 212.587 246.402 211.759L231.802 197.159C230.974 196.381 230.561 195.407 230.561 194.239V117.516C230.561 116.3 231.169 115.691 232.386 115.691H253.045C254.261 115.691 254.87 116.3 254.87 117.516V192.049C254.87 193.023 255.356 193.509 256.33 193.509H268.302V117.516C268.302 116.3 268.91 115.691 270.127 115.691H290.786C292.002 115.691 292.611 116.3 292.611 117.516V211.175C292.611 212.392 292.002 213 290.786 213H249.322Z" fill="white"></path><path d="M503.53 115.691C504.601 115.691 505.38 116.056 505.866 116.786L523.24 141.314C523.727 141.996 523.97 142.726 523.97 143.505V211.176C523.97 212.392 523.362 213 522.146 213H501.486C500.27 213 499.661 212.392 499.661 211.176V180.15H483.382V211.176C483.382 212.392 482.773 213 481.557 213H460.825C459.609 213 459 212.392 459 211.176V143.505C459 142.872 459.244 142.142 459.73 141.314L477.031 116.786C477.567 116.056 478.345 115.691 479.367 115.691H503.53ZM481 135C479.895 135 479 135.895 479 137V159C479 160.105 479.895 161 481 161H501C502.105 161 503 160.105 503 159V137C503 135.895 502.105 135 501 135H481Z" fill="white"></path><path d="M150.319 213C149.102 213 148.494 212.392 148.494 211.175V117.516C148.494 116.3 149.102 115.691 150.319 115.691H194.849C196.017 115.691 196.99 116.081 197.769 116.859L212.369 131.459C213.196 132.287 213.61 133.26 213.61 134.379V194.239C213.61 195.407 213.196 196.381 212.369 197.159L197.769 211.759C196.99 212.587 196.017 213 194.849 213H150.319ZM172.876 193.509H186.235C188.279 193.509 189.301 192.147 189.301 189.421V139.27C189.301 136.496 188.279 135.109 186.235 135.109H172.876V193.509Z" fill="white"></path><path d="M78.8289 213C77.6122 213 77.0039 212.392 77.0039 211.175V117.516C77.0039 116.3 77.6122 115.691 78.8289 115.691H129.71C130.927 115.691 131.535 116.3 131.535 117.516V133.284C131.535 134.501 130.927 135.109 129.71 135.109H101.313V155.841H127.228C128.445 155.841 129.053 156.45 129.053 157.666V171.025C129.053 172.242 128.445 172.85 127.228 172.85H101.313V193.509H129.71C130.927 193.509 131.535 194.118 131.535 195.334V211.175C131.535 212.392 130.927 213 129.71 213H78.8289Z" fill="white"></path><g filter="url(#filter0_i_1018_75)">
<path d="M395.275 158.638C398.588 161.033 398.588 165.967 395.275 168.362L328.265 216.809C324.298 219.678 318.75 216.843 318.75 211.947L318.75 115.053C318.75 110.157 324.298 107.322 328.265 110.191L395.275 158.638Z" fill="white"></path>
</g><defs>
<filter id="filter0_i_1018_75" x="318.75" y="109.043" width="79.0098" height="108.914" filterUnits="userSpaceOnUse" color-interpolation-filters="sRGB">
<feFlood flood-opacity="0" result="BackgroundImageFix"></feFlood>
<feBlend mode="normal" in="SourceGraphic" in2="BackgroundImageFix" result="shape"></feBlend>
<feColorMatrix in="SourceAlpha" type="matrix" values="0 0 0 0 0 0 0 0 0 0 0 0 0 0 0 0 0 0 127 0" result="hardAlpha"></feColorMatrix>
<feOffset></feOffset>
<feGaussianBlur stdDeviation="4"></feGaussianBlur>
<feComposite in2="hardAlpha" operator="arithmetic" k2="-1" k3="1"></feComposite>
<feColorMatrix type="matrix" values="0 0 0 0 0.360784 0 0 0 0 0.188235 0 0 0 0 1 0 0 0 1 0"></feColorMatrix>
<feBlend mode="normal" in2="shape" result="effect1_innerShadow_1018_75"></feBlend>
</filter>
<clipPath id="SvgjsClipPath1188"><rect width="1000" height="1000" x="0" y="0" rx="300" ry="300"></rect></clipPath></defs></svg></g></g></svg>